<?xml version="1.0" encoding="utf-8"?>
<!-- Generator: Adobe Illustrator 23.0.3, SVG Export Plug-In . SVG Version: 6.00 Build 0)  -->
<svg version="1.1" id="Layer_1" xmlns="http://www.w3.org/2000/svg" xmlns:xlink="http://www.w3.org/1999/xlink" x="0px" y="0px"
	 viewBox="0 0 338 102" style="enable-background:new 0 0 338 102;" xml:space="preserve">
<style type="text/css">
	.st0{fill:#FCFCFC;}
	.st1{fill:none;stroke:#333C4E;stroke-miterlimit:10;}
	.st2{fill:#333C4E;}
	.st3{fill:#4CAF4F;stroke:#4CAF4F;stroke-miterlimit:10;}
	.st4{fill:#333C4E;stroke:#333C4E;stroke-miterlimit:10;}
	.st5{fill:#C3A9A9;}
	.st6{fill:none;stroke:#4CAF4F;stroke-width:5;stroke-miterlimit:10;}
	.st7{fill:none;stroke:#333C4E;stroke-width:5;stroke-miterlimit:10;}
	.st8{fill:none;stroke:#C3A9A9;stroke-width:5;stroke-miterlimit:10;}
	.st9{fill:#4CAF4F;}
</style>
<g>
	<line class="st0" x1="285.35" y1="7" x2="285.74" y2="39.69"/>
	<g>
		<line class="st1" x1="285.48" y1="18.19" x2="285.74" y2="39.69"/>
		<g>
			<g>
				<polygon class="st2" points="281.9,15.77 282.08,15.92 284.99,18.78 284.88,10.11 281.79,7.04 				"/>
				<path class="st2" d="M288.79,6.96l-2.91,3.14l0.1,8.67c0.83-1.14,1.82-2.18,2.91-3.11L288.79,6.96z"/>
			</g>
		</g>
	</g>
</g>
<g>
	<path class="st3" d="M98.44,56.79v-37.5h5.26v37.5H98.44z M101.72,40.82v-5h20.81v5H101.72z M119.74,56.79v-37.5h5.26v37.5H119.74z
		"/>
	<path class="st3" d="M139.04,30.02v16.27c0,1.87,0.48,3.32,1.43,4.35c0.95,1.02,2.3,1.53,4.04,1.53c1.74,0,3.07-0.46,4.01-1.38
		c0.94-0.92,1.41-2.21,1.41-3.88l0.36,5.6c-0.48,1.2-1.32,2.28-2.53,3.24c-1.2,0.95-2.78,1.43-4.72,1.43
		c-2.96,0-5.24-0.95-6.85-2.85c-1.61-1.9-2.41-4.58-2.41-8.03V30.02H139.04z M149.92,56.79V30.02h5.24v26.77H149.92z"/>
	<path class="st3" d="M171.64,57.25c-2.96,0-5.24-0.95-6.85-2.85s-2.41-4.58-2.41-8.03v-5.91c0-3.47,0.79-6.16,2.36-8.06
		s3.79-2.85,6.64-2.85c1.58,0,3.03,0.41,4.35,1.24c1.31,0.83,2.38,1.99,3.19,3.48l-0.54,5.47c0-1.13-0.21-2.11-0.62-2.91
		s-1.01-1.42-1.79-1.84c-0.78-0.42-1.73-0.63-2.85-0.63c-1.74,0-3.08,0.54-4.04,1.62c-0.95,1.08-1.43,2.6-1.43,4.57v5.83
		c0,1.94,0.48,3.44,1.43,4.5c0.95,1.06,2.3,1.59,4.04,1.59c1.12,0,2.07-0.22,2.85-0.66c0.78-0.44,1.38-1.07,1.79-1.9
		s0.62-1.81,0.62-2.97l0.36,5.65c-0.48,1.2-1.31,2.28-2.49,3.24C175.06,56.78,173.53,57.25,171.64,57.25z M178.37,56.79v-37.5h5.26
		v37.5H178.37z"/>
	<path class="st3" d="M200.11,57.25c-2.96,0-5.24-0.95-6.85-2.85s-2.41-4.58-2.41-8.03v-5.91c0-3.47,0.79-6.16,2.36-8.06
		s3.79-2.85,6.64-2.85c1.58,0,3.03,0.41,4.35,1.24c1.31,0.83,2.38,1.99,3.19,3.48l-0.54,5.47c0-1.13-0.21-2.11-0.62-2.91
		s-1.01-1.42-1.79-1.84c-0.78-0.42-1.73-0.63-2.85-0.63c-1.74,0-3.08,0.54-4.04,1.62c-0.95,1.08-1.43,2.6-1.43,4.57v5.83
		c0,1.94,0.48,3.44,1.43,4.5c0.95,1.06,2.3,1.59,4.04,1.59c1.12,0,2.07-0.22,2.85-0.66c0.78-0.44,1.38-1.07,1.79-1.9
		s0.62-1.81,0.62-2.97l0.36,5.65c-0.48,1.2-1.31,2.28-2.49,3.24C203.54,56.78,202,57.25,200.11,57.25z M206.84,56.79v-37.5h5.26
		v37.5H206.84z"/>
	<path class="st3" d="M225.36,19.29v30.59c0,0.64,0.14,1.13,0.43,1.5c0.28,0.36,0.68,0.54,1.2,0.54h2.48v5h-3.09
		c-1.98,0-3.52-0.62-4.62-1.86c-1.1-1.24-1.65-2.98-1.65-5.24V19.29H225.36z"/>
	<path class="st3" d="M246.35,57.18c-3.73,0-6.62-1.04-8.67-3.12c-2.05-2.08-3.07-5.04-3.07-8.87v-3.02c0-3.99,0.98-7.08,2.95-9.26
		c1.97-2.18,4.74-3.28,8.32-3.28c3.37,0,5.98,1.24,7.83,3.71c1.85,2.48,2.77,5.95,2.77,10.42v1.75h-18.05v-4.23h13.05
		c-0.15-2.17-0.72-3.86-1.69-5.08c-0.97-1.22-2.27-1.83-3.91-1.83c-1.98,0-3.52,0.65-4.62,1.96c-1.1,1.31-1.65,3.16-1.65,5.54v3.4
		c0,2.22,0.59,3.92,1.77,5.11c1.18,1.19,2.83,1.78,4.96,1.78c1.07,0,2.12-0.21,3.17-0.64s1.99-1.03,2.81-1.81l3.46,3.46
		c-1.32,1.27-2.81,2.26-4.46,2.95C249.68,56.83,248.02,57.18,246.35,57.18z"/>
</g>
<g>
	<path class="st4" d="M275.3,57.43c-4.18,0-7.42-1.22-9.71-3.65c-2.3-2.43-3.44-5.87-3.44-10.3V19.54h5.26v24.12
		c0,2.73,0.69,4.85,2.06,6.34c1.38,1.5,3.32,2.24,5.83,2.24c2.53,0,4.48-0.75,5.87-2.24c1.38-1.5,2.08-3.61,2.08-6.34V19.54h5.26
		v23.93c0,4.44-1.15,7.87-3.46,10.3C282.74,56.21,279.5,57.43,275.3,57.43z"/>
	<path class="st4" d="M296.76,57.04v-37.5h5.26v37.5H296.76z M299.47,42.5v-5h11.99c1.72,0,3.1-0.59,4.14-1.78
		c1.04-1.19,1.56-2.74,1.56-4.67c0-1.96-0.52-3.53-1.56-4.72c-1.04-1.19-2.42-1.78-4.14-1.78h-11.99v-5h11.81
		c2.27,0,4.25,0.48,5.93,1.43c1.69,0.95,3,2.29,3.93,4.01c0.94,1.72,1.4,3.74,1.4,6.06c0,2.3-0.47,4.32-1.4,6.04
		c-0.94,1.72-2.25,3.05-3.93,4c-1.69,0.95-3.66,1.42-5.93,1.42H299.47z"/>
</g>
<g>
	<path class="st5" d="M102.17,78.94l-1.29,3.92h-1.66l4.23-12.46h1.94l4.25,12.46h-1.72l-1.33-3.92H102.17z M106.26,77.68
		l-1.22-3.59c-0.28-0.81-0.46-1.55-0.65-2.27h-0.04c-0.19,0.74-0.39,1.5-0.63,2.26l-1.22,3.61H106.26z"/>
	<path class="st5" d="M115.39,70.56c0.7-0.15,1.81-0.26,2.94-0.26c1.61,0,2.64,0.28,3.42,0.91c0.65,0.48,1.04,1.22,1.04,2.2
		c0,1.2-0.79,2.26-2.11,2.74v0.04c1.18,0.3,2.57,1.28,2.57,3.13c0,1.07-0.43,1.89-1.05,2.5c-0.87,0.8-2.27,1.17-4.31,1.17
		c-1.11,0-1.96-0.07-2.5-0.15V70.56z M117,75.66h1.46c1.7,0,2.7-0.89,2.7-2.09c0-1.46-1.11-2.03-2.74-2.03
		c-0.74,0-1.17,0.06-1.42,0.11V75.66z M117,81.64c0.31,0.06,0.78,0.07,1.35,0.07c1.66,0,3.2-0.61,3.2-2.42c0-1.7-1.46-2.4-3.22-2.4
		H117V81.64z"/>
	<path class="st5" d="M126.34,78.68c0.04,2.2,1.44,3.11,3.07,3.11c1.17,0,1.87-0.2,2.48-0.46l0.28,1.17
		c-0.57,0.26-1.55,0.55-2.98,0.55c-2.76,0-4.4-1.81-4.4-4.51s1.59-4.83,4.2-4.83c2.92,0,3.7,2.57,3.7,4.22
		c0,0.33-0.04,0.59-0.06,0.76H126.34z M131.11,77.51c0.02-1.04-0.43-2.64-2.26-2.64c-1.65,0-2.37,1.52-2.5,2.64H131.11z"/>
	<path class="st5" d="M136.65,71.33v2.57h2.33v1.24h-2.33v4.83c0,1.11,0.31,1.74,1.22,1.74c0.43,0,0.74-0.06,0.94-0.11l0.07,1.22
		c-0.31,0.13-0.81,0.22-1.44,0.22c-0.76,0-1.37-0.24-1.76-0.68c-0.46-0.48-0.63-1.28-0.63-2.33v-4.88h-1.39v-1.24h1.39v-2.15
		L136.65,71.33z"/>
	<path class="st5" d="M142.77,71.33v2.57h2.33v1.24h-2.33v4.83c0,1.11,0.31,1.74,1.22,1.74c0.43,0,0.74-0.06,0.94-0.11l0.07,1.22
		c-0.31,0.13-0.81,0.22-1.44,0.22c-0.76,0-1.37-0.24-1.76-0.68c-0.46-0.48-0.63-1.28-0.63-2.33v-4.88h-1.39v-1.24h1.39v-2.15
		L142.77,71.33z"/>
	<path class="st5" d="M147.73,78.68c0.04,2.2,1.44,3.11,3.07,3.11c1.17,0,1.87-0.2,2.48-0.46l0.28,1.17
		c-0.57,0.26-1.55,0.55-2.98,0.55c-2.76,0-4.4-1.81-4.4-4.51s1.59-4.83,4.2-4.83c2.92,0,3.7,2.57,3.7,4.22
		c0,0.33-0.04,0.59-0.06,0.76H147.73z M152.5,77.51c0.02-1.04-0.43-2.64-2.26-2.64c-1.65,0-2.37,1.52-2.5,2.64H152.5z"/>
	<path class="st5" d="M156.08,76.7c0-1.05-0.02-1.96-0.07-2.79h1.42l0.06,1.76h0.07c0.41-1.2,1.39-1.96,2.48-1.96
		c0.19,0,0.31,0.02,0.46,0.06v1.54c-0.17-0.04-0.33-0.06-0.55-0.06c-1.15,0-1.96,0.87-2.18,2.09c-0.04,0.22-0.07,0.48-0.07,0.76
		v4.77h-1.61V76.7z"/>
	<path class="st5" d="M166.05,76.33c0-0.92-0.02-1.68-0.07-2.42h1.42l0.07,1.44h0.06c0.5-0.85,1.33-1.65,2.81-1.65
		c1.22,0,2.15,0.74,2.53,1.79h0.04c0.28-0.5,0.63-0.89,1-1.17c0.54-0.41,1.13-0.63,1.98-0.63c1.18,0,2.94,0.78,2.94,3.88v5.27h-1.59
		v-5.07c0-1.72-0.63-2.76-1.94-2.76c-0.92,0-1.65,0.68-1.92,1.48c-0.07,0.22-0.13,0.52-0.13,0.81v5.53h-1.59v-5.36
		c0-1.42-0.63-2.46-1.87-2.46c-1.02,0-1.76,0.81-2.02,1.63c-0.09,0.24-0.13,0.52-0.13,0.8v5.4h-1.59V76.33z"/>
	<path class="st5" d="M182.37,78.68c0.04,2.2,1.44,3.11,3.07,3.11c1.17,0,1.87-0.2,2.48-0.46l0.28,1.17
		c-0.57,0.26-1.55,0.55-2.98,0.55c-2.76,0-4.4-1.81-4.4-4.51s1.59-4.83,4.2-4.83c2.92,0,3.7,2.57,3.7,4.22
		c0,0.33-0.04,0.59-0.06,0.76H182.37z M187.14,77.51c0.02-1.04-0.43-2.64-2.26-2.64c-1.65,0-2.37,1.52-2.5,2.64H187.14z"/>
	<path class="st5" d="M191.63,78.68c0.04,2.2,1.44,3.11,3.07,3.11c1.17,0,1.87-0.2,2.48-0.46l0.28,1.17
		c-0.57,0.26-1.55,0.55-2.98,0.55c-2.76,0-4.4-1.81-4.4-4.51s1.59-4.83,4.2-4.83c2.92,0,3.7,2.57,3.7,4.22
		c0,0.33-0.04,0.59-0.06,0.76H191.63z M196.4,77.51c0.02-1.04-0.43-2.64-2.26-2.64c-1.65,0-2.37,1.52-2.5,2.64H196.4z"/>
	<path class="st5" d="M201.95,71.33v2.57h2.33v1.24h-2.33v4.83c0,1.11,0.31,1.74,1.22,1.74c0.43,0,0.74-0.06,0.94-0.11l0.07,1.22
		c-0.31,0.13-0.81,0.22-1.44,0.22c-0.76,0-1.37-0.24-1.76-0.68c-0.46-0.48-0.63-1.28-0.63-2.33v-4.88h-1.39v-1.24h1.39v-2.15
		L201.95,71.33z"/>
	<path class="st5" d="M207.92,71.39c0.02,0.56-0.39,1-1.04,1c-0.57,0-0.98-0.44-0.98-1c0-0.57,0.43-1.02,1.02-1.02
		C207.53,70.37,207.92,70.82,207.92,71.39z M206.11,82.86v-8.95h1.63v8.95H206.11z"/>
	<path class="st5" d="M210.43,76.33c0-0.92-0.02-1.68-0.07-2.42h1.44l0.09,1.48h0.04c0.44-0.85,1.48-1.68,2.96-1.68
		c1.24,0,3.16,0.74,3.16,3.81v5.34h-1.63V77.7c0-1.44-0.54-2.64-2.07-2.64c-1.07,0-1.9,0.76-2.18,1.66
		c-0.07,0.2-0.11,0.48-0.11,0.76v5.38h-1.63V76.33z"/>
	<path class="st5" d="M228.41,73.91c-0.04,0.65-0.07,1.37-0.07,2.46v5.2c0,2.05-0.41,3.31-1.28,4.09c-0.87,0.81-2.13,1.07-3.25,1.07
		c-1.07,0-2.26-0.26-2.98-0.74l0.41-1.24c0.59,0.37,1.52,0.7,2.63,0.7c1.66,0,2.89-0.87,2.89-3.13v-1h-0.04
		c-0.5,0.83-1.46,1.5-2.85,1.5c-2.22,0-3.81-1.89-3.81-4.36c0-3.03,1.98-4.75,4.03-4.75c1.55,0,2.4,0.81,2.79,1.55h0.04l0.07-1.35
		H228.41z M226.72,77.44c0-0.28-0.02-0.52-0.09-0.74c-0.3-0.94-1.09-1.72-2.27-1.72c-1.55,0-2.66,1.31-2.66,3.38
		c0,1.76,0.89,3.22,2.64,3.22c1,0,1.9-0.63,2.26-1.66c0.09-0.28,0.13-0.59,0.13-0.87V77.44z"/>
	<path class="st5" d="M235.85,78.68c0.04,2.2,1.44,3.11,3.07,3.11c1.17,0,1.87-0.2,2.48-0.46l0.28,1.17
		c-0.57,0.26-1.55,0.55-2.98,0.55c-2.76,0-4.4-1.81-4.4-4.51s1.59-4.83,4.2-4.83c2.92,0,3.7,2.57,3.7,4.22
		c0,0.33-0.04,0.59-0.06,0.76H235.85z M240.63,77.51c0.02-1.04-0.43-2.64-2.26-2.64c-1.65,0-2.37,1.52-2.5,2.64H240.63z"/>
	<path class="st5" d="M244.91,73.91l1.28,1.92c0.33,0.5,0.61,0.96,0.91,1.46h0.06c0.3-0.54,0.59-1,0.89-1.48l1.26-1.9h1.76
		L248,78.23l3.14,4.62h-1.85l-1.31-2.02c-0.35-0.52-0.65-1.02-0.96-1.55h-0.04c-0.3,0.54-0.61,1.02-0.94,1.55l-1.29,2.02h-1.79
		l3.18-4.57l-3.03-4.38H244.91z"/>
	<path class="st5" d="M252.71,76.83c0-1.15-0.04-2.07-0.07-2.92h1.46l0.07,1.53h0.04c0.67-1.09,1.72-1.74,3.18-1.74
		c2.16,0,3.79,1.83,3.79,4.55c0,3.22-1.96,4.81-4.07,4.81c-1.18,0-2.22-0.52-2.76-1.41h-0.04v4.86h-1.61V76.83z M254.32,79.21
		c0,0.24,0.04,0.46,0.07,0.67c0.3,1.13,1.28,1.9,2.44,1.9c1.72,0,2.72-1.41,2.72-3.46c0-1.79-0.94-3.33-2.66-3.33
		c-1.11,0-2.15,0.8-2.46,2.02c-0.06,0.2-0.11,0.44-0.11,0.67V79.21z"/>
	<path class="st5" d="M264.14,78.68c0.04,2.2,1.44,3.11,3.07,3.11c1.17,0,1.87-0.2,2.48-0.46l0.28,1.17
		c-0.57,0.26-1.55,0.55-2.98,0.55c-2.76,0-4.4-1.81-4.4-4.51s1.59-4.83,4.2-4.83c2.92,0,3.7,2.57,3.7,4.22
		c0,0.33-0.04,0.59-0.06,0.76H264.14z M268.91,77.51c0.02-1.04-0.43-2.64-2.26-2.64c-1.65,0-2.37,1.52-2.5,2.64H268.91z"/>
	<path class="st5" d="M272.49,76.7c0-1.05-0.02-1.96-0.07-2.79h1.42l0.06,1.76h0.07c0.41-1.2,1.39-1.96,2.48-1.96
		c0.19,0,0.31,0.02,0.46,0.06v1.54c-0.17-0.04-0.33-0.06-0.55-0.06c-1.15,0-1.96,0.87-2.18,2.09c-0.04,0.22-0.07,0.48-0.07,0.76
		v4.77h-1.61V76.7z"/>
	<path class="st5" d="M280.43,71.39c0.02,0.56-0.39,1-1.04,1c-0.57,0-0.98-0.44-0.98-1c0-0.57,0.43-1.02,1.02-1.02
		C280.04,70.37,280.43,70.82,280.43,71.39z M278.61,82.86v-8.95h1.63v8.95H278.61z"/>
	<path class="st5" d="M283.85,78.68c0.04,2.2,1.44,3.11,3.07,3.11c1.17,0,1.87-0.2,2.48-0.46l0.28,1.17
		c-0.57,0.26-1.55,0.55-2.98,0.55c-2.76,0-4.4-1.81-4.4-4.51s1.59-4.83,4.2-4.83c2.92,0,3.7,2.57,3.7,4.22
		c0,0.33-0.04,0.59-0.06,0.76H283.85z M288.62,77.51c0.02-1.04-0.43-2.64-2.26-2.64c-1.65,0-2.37,1.52-2.5,2.64H288.62z"/>
	<path class="st5" d="M292.2,76.33c0-0.92-0.02-1.68-0.07-2.42h1.44l0.09,1.48h0.04c0.44-0.85,1.48-1.68,2.96-1.68
		c1.24,0,3.16,0.74,3.16,3.81v5.34h-1.63V77.7c0-1.44-0.54-2.64-2.07-2.64c-1.07,0-1.9,0.76-2.18,1.66
		c-0.07,0.2-0.11,0.48-0.11,0.76v5.38h-1.63V76.33z"/>
	<path class="st5" d="M308.84,82.52c-0.43,0.22-1.37,0.52-2.57,0.52c-2.7,0-4.46-1.83-4.46-4.57c0-2.76,1.89-4.75,4.81-4.75
		c0.96,0,1.81,0.24,2.26,0.46l-0.37,1.26c-0.39-0.22-1-0.43-1.89-0.43c-2.05,0-3.16,1.52-3.16,3.38c0,2.07,1.33,3.35,3.11,3.35
		c0.92,0,1.53-0.24,2-0.44L308.84,82.52z"/>
	<path class="st5" d="M311.54,78.68c0.04,2.2,1.44,3.11,3.07,3.11c1.17,0,1.87-0.2,2.48-0.46l0.28,1.17
		c-0.57,0.26-1.55,0.55-2.98,0.55c-2.76,0-4.4-1.81-4.4-4.51s1.59-4.83,4.2-4.83c2.92,0,3.7,2.57,3.7,4.22
		c0,0.33-0.04,0.59-0.06,0.76H311.54z M316.31,77.51c0.02-1.04-0.42-2.64-2.26-2.64c-1.65,0-2.37,1.52-2.5,2.64H316.31z"/>
</g>
<path class="st6" d="M62.72,49.71c-2.25,10.87-12.88,17.87-23.76,15.62S21.09,52.45,23.34,41.57s12.88-17.87,23.76-15.62
	c0.6,0.12,1.18,0.27,1.75,0.44"/>
<path class="st7" d="M54.63,54.39c-7.82-7.82-7.8-20.5,0.03-28.33s20.51-7.84,28.33-0.03s7.8,20.5-0.03,28.33
	c-0.43,0.43-0.87,0.84-1.33,1.22"/>
<path class="st8" d="M59.87,45.52c11.1,0,20.1,9,20.1,20.1s-9,20.1-20.1,20.1c-9,0-16.62-5.91-19.18-14.06"/>
<g>
	<path class="st0" d="M23.8,53.04c-4.03,0-7.3-3.28-7.3-7.3c0-4.03,3.28-7.3,7.3-7.3c4.03,0,7.3,3.28,7.3,7.3
		C31.11,49.76,27.83,53.04,23.8,53.04z"/>
	<path class="st9" d="M23.8,39.93c3.2,0,5.8,2.6,5.8,5.8s-2.6,5.8-5.8,5.8s-5.8-2.6-5.8-5.8S20.6,39.93,23.8,39.93 M23.8,36.93
		c-4.86,0-8.8,3.94-8.8,8.8s3.94,8.8,8.8,8.8c4.86,0,8.8-3.94,8.8-8.8S28.67,36.93,23.8,36.93L23.8,36.93z"/>
</g>
<g>
	<path class="st0" d="M65.18,90.89c-4.03,0-7.3-3.28-7.3-7.3c0-4.03,3.28-7.3,7.3-7.3c4.03,0,7.3,3.28,7.3,7.3
		C72.48,87.62,69.21,90.89,65.18,90.89z"/>
	<path class="st5" d="M65.18,77.78c3.2,0,5.8,2.6,5.8,5.8s-2.6,5.8-5.8,5.8s-5.8-2.6-5.8-5.8S61.98,77.78,65.18,77.78 M65.18,74.78
		c-4.86,0-8.8,3.94-8.8,8.8s3.94,8.8,8.8,8.8c4.86,0,8.8-3.94,8.8-8.8S70.04,74.78,65.18,74.78L65.18,74.78z"/>
</g>
<g>
	<path class="st0" d="M72.22,28.39c-4.03,0-7.3-3.28-7.3-7.3s3.28-7.3,7.3-7.3c4.03,0,7.3,3.28,7.3,7.3S76.25,28.39,72.22,28.39z"/>
	<path class="st2" d="M72.22,15.28c3.2,0,5.8,2.6,5.8,5.8s-2.6,5.8-5.8,5.8s-5.8-2.6-5.8-5.8S69.02,15.28,72.22,15.28 M72.22,12.28
		c-4.86,0-8.8,3.94-8.8,8.8c0,4.86,3.94,8.8,8.8,8.8s8.8-3.94,8.8-8.8C81.03,16.22,77.08,12.28,72.22,12.28L72.22,12.28z"/>
</g>
<g>
</g>
<g>
</g>
<g>
</g>
<g>
</g>
<g>
</g>
<g>
</g>
<g>
</g>
<g>
</g>
<g>
</g>
<g>
</g>
<g>
</g>
<g>
</g>
<g>
</g>
<g>
</g>
<g>
</g>
<g>
</g>
</svg>
